<svg width="65" height="64" viewBox="0 0 65 64" fill="none" xmlns="http://www.w3.org/2000/svg">
<path fill-rule="evenodd" clip-rule="evenodd" d="M62.6016 4L2.60156 30.5V59.75H16.1016V50.25H13.1016L17.6016 43.25L22.1016 50.25H19.1016V59.75H31.1016V26.75H28.1016L32.6016 19.75L37.1016 26.75H34.1016V59.75H47.6016V37.25H42.6016L50.1016 27.75L57.6016 37.25H52.6016V59.75H59.1016V18.75H52.1016L62.6016 7.25V4Z" fill="#D1DEE6"/>
<path d="M2.60156 38.75L10.1016 29.25L17.6016 38.75H12.6016V59.75H7.60156V38.75H2.60156Z" fill="#546978"/>
<path d="M17.6016 18.75L25.1016 9.25L32.6016 18.75H27.6016V59.75H22.6016V18.75H17.6016Z" fill="#546978"/>
<path d="M32.6016 33.75L40.1016 24.25L47.6016 33.75H42.6016V59.75H37.6016V33.75H32.6016Z" fill="#546978"/>
<path d="M47.6016 50.25L55.1016 40.75L62.6016 50.25H57.6016V59.75H52.6016V50.25H47.6016Z" fill="#546978"/>
</svg>
