<svg width="64" height="64" viewBox="0 0 64 64" fill="none" xmlns="http://www.w3.org/2000/svg">
<path d="M31.945 42.6363C34.4906 42.6363 36.5541 40.3435 36.5541 37.5151C36.5541 34.6868 34.4906 32.3939 31.945 32.3939C29.3995 32.3939 27.3359 34.6868 27.3359 37.5151C27.3359 40.3435 29.3995 42.6363 31.945 42.6363Z" fill="#546978"/>
<path d="M43.4449 50.234C42.6434 46.2446 38.1524 45.197 31.9615 45.197C23.4982 45.197 20.9519 47.1623 20.4508 50.2321C20.3124 51.0794 20.8652 51.8491 21.8032 52.0689C23.362 52.4342 26.4015 52.8788 31.9615 52.8788C37.5216 52.8788 40.561 52.4342 42.1198 52.0689C43.0578 51.8491 43.6143 51.0769 43.4449 50.234Z" fill="#546978"/>
<path fill-rule="evenodd" clip-rule="evenodd" d="M31.7481 6.8076C31.9793 6.43559 32.5207 6.43559 32.7519 6.8076L38.2164 15.6007C38.3889 15.8783 38.3033 16.2432 38.0254 16.4152L35.2718 18.1185L32.5609 19.7954C32.3704 19.9132 32.1296 19.9132 31.9391 19.7954L29.2282 18.1185L26.4746 16.4152C26.1967 16.2432 26.1111 15.8783 26.2836 15.6007L31.7481 6.8076ZM39.7237 32.102C39.4519 32.358 39.0137 32.3009 38.8166 31.9837L36.0967 27.607C35.9483 27.3681 35.9887 27.0577 36.1935 26.8649L41.3595 21.9997C41.6313 21.7437 42.0695 21.8008 42.2665 22.1179L44.9865 26.4947C45.1349 26.7335 45.0944 27.0439 44.8897 27.2367L39.7237 32.102ZM28.3065 26.8649C28.5113 27.0577 28.5517 27.3681 28.4033 27.607L25.6834 31.9837C25.4863 32.3009 25.0481 32.358 24.7763 32.102L19.6103 27.2367C19.4056 27.0439 19.3651 26.7335 19.5135 26.4947L22.2335 22.1179C22.4305 21.8008 22.8687 21.7437 23.1405 21.9997L28.3065 26.8649ZM46.4364 42.9036C46.1646 43.1596 45.7264 43.1025 45.5293 42.7853L42.8094 38.4086C42.661 38.1697 42.7014 37.8593 42.9062 37.6665L48.0722 32.8013C48.344 32.5453 48.7822 32.6024 48.9792 32.9195L51.6992 37.2963C51.8476 37.5351 51.8071 37.8455 51.6024 38.0383L46.4364 42.9036ZM21.5938 37.6665C21.7986 37.8593 21.839 38.1697 21.6906 38.4086L18.9707 42.7853C18.7736 43.1025 18.3354 43.1596 18.0636 42.9036L12.8976 38.0383C12.6929 37.8455 12.6524 37.5351 12.8008 37.2963L15.5208 32.9195C15.7178 32.6024 16.156 32.5453 16.4278 32.8013L21.5938 37.6665ZM14.8811 48.4681C15.0859 48.661 15.1263 48.9713 14.9779 49.2102L13.7283 51.221C13.6205 51.3945 13.4307 51.5 13.2264 51.5H4.17002C3.68527 51.5 3.40674 50.9485 3.69445 50.5584L8.79375 43.644C9.00409 43.3588 9.41645 43.3216 9.67444 43.5646L14.8811 48.4681ZM51.2736 51.5C51.0693 51.5 50.8795 51.3945 50.7717 51.221L49.5221 49.2102C49.3737 48.9713 49.4141 48.661 49.6189 48.4681L54.8256 43.5646C55.0836 43.3216 55.4959 43.3588 55.7063 43.644L60.8055 50.5584C61.0933 50.9485 60.8147 51.5 60.33 51.5H51.2736Z" fill="#546978"/>
<line x1="9.33573" y1="51.0406" x2="32.9721" y2="12.0406" stroke="#546978" stroke-width="1.77273"/>
<line y1="-0.886364" x2="45.6035" y2="-0.886364" transform="matrix(-0.518302 -0.855198 -0.855198 0.518302 54.4062 51.5)" stroke="#546978" stroke-width="1.77273"/>
</svg>
