<svg width="200" height="17" viewBox="0 0 200 17" fill="none" xmlns="http://www.w3.org/2000/svg">
<path d="M1.91761 13H0.0539773L4.24148 1.36364H6.26989L10.4574 13H8.59375L5.30398 3.47727H5.21307L1.91761 13ZM2.23011 8.44318H8.27557V9.92045H2.23011V8.44318ZM13.7003 1.36364V13H12.0014V1.36364H13.7003ZM15.9858 13V4.27273H17.6847V13H15.9858ZM16.8438 2.92614C16.5483 2.92614 16.2945 2.82765 16.0824 2.63068C15.8741 2.42992 15.7699 2.19129 15.7699 1.91477C15.7699 1.63447 15.8741 1.39583 16.0824 1.19886C16.2945 0.998106 16.5483 0.897727 16.8438 0.897727C17.1392 0.897727 17.3911 0.998106 17.5994 1.19886C17.8116 1.39583 17.9176 1.63447 17.9176 1.91477C17.9176 2.19129 17.8116 2.42992 17.5994 2.63068C17.3911 2.82765 17.1392 2.92614 16.8438 2.92614ZM23.6293 16.4545C22.9361 16.4545 22.3395 16.3636 21.8395 16.1818C21.3433 16 20.938 15.7595 20.6236 15.4602C20.3092 15.161 20.0743 14.8333 19.919 14.4773L21.3793 13.875C21.4815 14.0417 21.6179 14.2178 21.7884 14.4034C21.9626 14.5928 22.1974 14.7538 22.4929 14.8864C22.7921 15.0189 23.1766 15.0852 23.6463 15.0852C24.2902 15.0852 24.8224 14.928 25.2429 14.6136C25.6634 14.303 25.8736 13.8068 25.8736 13.125V11.4091H25.7656C25.6634 11.5947 25.5156 11.8011 25.3224 12.0284C25.133 12.2557 24.8717 12.4527 24.5384 12.6193C24.205 12.786 23.7713 12.8693 23.2372 12.8693C22.5478 12.8693 21.9266 12.7083 21.3736 12.3864C20.8243 12.0606 20.3887 11.5814 20.0668 10.9489C19.7486 10.3125 19.5895 9.5303 19.5895 8.60227C19.5895 7.67424 19.7467 6.87879 20.0611 6.21591C20.3793 5.55303 20.8149 5.04545 21.3679 4.69318C21.9209 4.33712 22.5478 4.15909 23.2486 4.15909C23.7902 4.15909 24.2277 4.25 24.5611 4.43182C24.8944 4.60985 25.1539 4.81818 25.3395 5.05682C25.5289 5.29545 25.6747 5.50568 25.777 5.6875H25.902V4.27273H27.5668V13.1932C27.5668 13.9432 27.3925 14.5587 27.044 15.0398C26.6955 15.5208 26.224 15.8769 25.6293 16.108C25.0384 16.339 24.3717 16.4545 23.6293 16.4545ZM23.6122 11.4602C24.1009 11.4602 24.5137 11.3466 24.8509 11.1193C25.1918 10.8883 25.4493 10.5587 25.6236 10.1307C25.8016 9.69886 25.8906 9.18182 25.8906 8.57955C25.8906 7.99242 25.8035 7.47538 25.6293 7.02841C25.455 6.58144 25.1993 6.23295 24.8622 5.98295C24.5251 5.72917 24.1084 5.60227 23.6122 5.60227C23.1009 5.60227 22.6747 5.73485 22.3338 6C21.9929 6.26136 21.7353 6.61742 21.5611 7.06818C21.3906 7.51894 21.3054 8.02273 21.3054 8.57955C21.3054 9.15152 21.3925 9.65341 21.5668 10.0852C21.741 10.517 21.9986 10.8542 22.3395 11.0966C22.6842 11.339 23.1084 11.4602 23.6122 11.4602ZM31.544 7.81818V13H29.8452V4.27273H31.4759V5.69318H31.5838C31.7846 5.23106 32.099 4.85985 32.527 4.57955C32.9588 4.29924 33.5024 4.15909 34.1577 4.15909C34.7524 4.15909 35.2732 4.28409 35.7202 4.53409C36.1671 4.7803 36.5137 5.14773 36.7599 5.63636C37.0062 6.125 37.1293 6.72917 37.1293 7.44886V13H35.4304V7.65341C35.4304 7.02083 35.2656 6.52652 34.9361 6.17045C34.6065 5.81061 34.1539 5.63068 33.5781 5.63068C33.1842 5.63068 32.8338 5.71591 32.527 5.88636C32.224 6.05682 31.9834 6.30682 31.8054 6.63636C31.6312 6.96212 31.544 7.35606 31.544 7.81818ZM43.169 13.1761C42.3092 13.1761 41.5687 12.9924 40.9474 12.625C40.33 12.2538 39.8527 11.733 39.5156 11.0625C39.1823 10.3883 39.0156 9.59848 39.0156 8.69318C39.0156 7.79924 39.1823 7.01136 39.5156 6.32955C39.8527 5.64773 40.3224 5.11553 40.9247 4.73295C41.5308 4.35038 42.2391 4.15909 43.0497 4.15909C43.5421 4.15909 44.0194 4.24053 44.4815 4.40341C44.9437 4.56629 45.3584 4.82197 45.7259 5.17045C46.0933 5.51894 46.383 5.97159 46.5952 6.52841C46.8073 7.08144 46.9134 7.75379 46.9134 8.54545V9.14773H39.9759V7.875H45.2486C45.2486 7.42803 45.1577 7.0322 44.9759 6.6875C44.794 6.33902 44.5384 6.06439 44.2088 5.86364C43.883 5.66288 43.5005 5.5625 43.0611 5.5625C42.5838 5.5625 42.1671 5.67992 41.8111 5.91477C41.4588 6.14583 41.1861 6.44886 40.9929 6.82386C40.8035 7.19508 40.7088 7.59848 40.7088 8.03409V9.02841C40.7088 9.61174 40.8111 10.108 41.0156 10.517C41.224 10.9261 41.5137 11.2386 41.8849 11.4545C42.2562 11.6667 42.6899 11.7727 43.1861 11.7727C43.508 11.7727 43.8016 11.7273 44.0668 11.6364C44.3319 11.5417 44.5611 11.4015 44.7543 11.2159C44.9474 11.0303 45.0952 10.8011 45.1974 10.5284L46.8054 10.8182C46.6766 11.2917 46.4455 11.7064 46.1122 12.0625C45.7827 12.4148 45.3679 12.6894 44.8679 12.8864C44.3717 13.0795 43.8054 13.1761 43.169 13.1761ZM52.0653 13.1705C51.3608 13.1705 50.732 12.9905 50.179 12.6307C49.6297 12.267 49.1979 11.75 48.8835 11.0795C48.5729 10.4053 48.4176 9.59659 48.4176 8.65341C48.4176 7.71023 48.5748 6.90341 48.8892 6.23295C49.2074 5.5625 49.643 5.04924 50.196 4.69318C50.7491 4.33712 51.3759 4.15909 52.0767 4.15909C52.6184 4.15909 53.054 4.25 53.3835 4.43182C53.7169 4.60985 53.9744 4.81818 54.1562 5.05682C54.3419 5.29545 54.4858 5.50568 54.5881 5.6875H54.6903V1.36364H56.3892V13H54.7301V11.642H54.5881C54.4858 11.8277 54.3381 12.0398 54.1449 12.2784C53.9555 12.517 53.6941 12.7254 53.3608 12.9034C53.0275 13.0814 52.5956 13.1705 52.0653 13.1705ZM52.4403 11.7216C52.929 11.7216 53.3419 11.5928 53.679 11.3352C54.0199 11.0739 54.2775 10.7121 54.4517 10.25C54.6297 9.78788 54.7188 9.25 54.7188 8.63636C54.7188 8.0303 54.6316 7.5 54.4574 7.04545C54.2831 6.59091 54.0275 6.23674 53.6903 5.98295C53.3532 5.72917 52.9366 5.60227 52.4403 5.60227C51.929 5.60227 51.5028 5.73485 51.1619 6C50.821 6.26515 50.5634 6.62689 50.3892 7.08523C50.2188 7.54356 50.1335 8.06061 50.1335 8.63636C50.1335 9.2197 50.2206 9.74432 50.3949 10.2102C50.5691 10.6761 50.8267 11.0455 51.1676 11.3182C51.5123 11.5871 51.9366 11.7216 52.4403 11.7216ZM64.2017 1.36364L67.4403 10.8409H67.571L70.8097 1.36364H72.7074L68.5199 13H66.4915L62.304 1.36364H64.2017ZM77.0526 13.1761C76.2344 13.1761 75.5204 12.9886 74.9105 12.6136C74.3007 12.2386 73.8272 11.714 73.4901 11.0398C73.1529 10.3655 72.9844 9.57765 72.9844 8.67614C72.9844 7.77083 73.1529 6.97917 73.4901 6.30114C73.8272 5.62311 74.3007 5.09659 74.9105 4.72159C75.5204 4.34659 76.2344 4.15909 77.0526 4.15909C77.8707 4.15909 78.5848 4.34659 79.1946 4.72159C79.8045 5.09659 80.2779 5.62311 80.6151 6.30114C80.9522 6.97917 81.1207 7.77083 81.1207 8.67614C81.1207 9.57765 80.9522 10.3655 80.6151 11.0398C80.2779 11.714 79.8045 12.2386 79.1946 12.6136C78.5848 12.9886 77.8707 13.1761 77.0526 13.1761ZM77.0582 11.75C77.5885 11.75 78.0279 11.6098 78.3764 11.3295C78.7249 11.0492 78.9825 10.6761 79.1491 10.2102C79.3196 9.74432 79.4048 9.23106 79.4048 8.67045C79.4048 8.11364 79.3196 7.60227 79.1491 7.13636C78.9825 6.66667 78.7249 6.28977 78.3764 6.00568C78.0279 5.72159 77.5885 5.57955 77.0582 5.57955C76.5241 5.57955 76.081 5.72159 75.7287 6.00568C75.3802 6.28977 75.1207 6.66667 74.9503 7.13636C74.7836 7.60227 74.7003 8.11364 74.7003 8.67045C74.7003 9.23106 74.7836 9.74432 74.9503 10.2102C75.1207 10.6761 75.3802 11.0492 75.7287 11.3295C76.081 11.6098 76.5241 11.75 77.0582 11.75ZM87.0909 4.27273V5.63636H82.3239V4.27273H87.0909ZM83.6023 2.18182H85.3011V10.4375C85.3011 10.767 85.3504 11.0152 85.4489 11.1818C85.5473 11.3447 85.6742 11.4564 85.8295 11.517C85.9886 11.5739 86.161 11.6023 86.3466 11.6023C86.483 11.6023 86.6023 11.5928 86.7045 11.5739C86.8068 11.5549 86.8864 11.5398 86.9432 11.5284L87.25 12.9318C87.1515 12.9697 87.0114 13.0076 86.8295 13.0455C86.6477 13.0871 86.4205 13.1098 86.1477 13.1136C85.7008 13.1212 85.2841 13.0417 84.8977 12.875C84.5114 12.7083 84.1989 12.4508 83.9602 12.1023C83.7216 11.7538 83.6023 11.3163 83.6023 10.7898V2.18182ZM92.6378 13.1761C91.7779 13.1761 91.0374 12.9924 90.4162 12.625C89.7988 12.2538 89.3215 11.733 88.9844 11.0625C88.651 10.3883 88.4844 9.59848 88.4844 8.69318C88.4844 7.79924 88.651 7.01136 88.9844 6.32955C89.3215 5.64773 89.7912 5.11553 90.3935 4.73295C90.9995 4.35038 91.7079 4.15909 92.5185 4.15909C93.0109 4.15909 93.4882 4.24053 93.9503 4.40341C94.4124 4.56629 94.8272 4.82197 95.1946 5.17045C95.562 5.51894 95.8518 5.97159 96.0639 6.52841C96.276 7.08144 96.3821 7.75379 96.3821 8.54545V9.14773H89.4446V7.875H94.7173C94.7173 7.42803 94.6264 7.0322 94.4446 6.6875C94.2628 6.33902 94.0071 6.06439 93.6776 5.86364C93.3518 5.66288 92.9692 5.5625 92.5298 5.5625C92.0526 5.5625 91.6359 5.67992 91.2798 5.91477C90.9276 6.14583 90.6548 6.44886 90.4616 6.82386C90.2723 7.19508 90.1776 7.59848 90.1776 8.03409V9.02841C90.1776 9.61174 90.2798 10.108 90.4844 10.517C90.6927 10.9261 90.9825 11.2386 91.3537 11.4545C91.7249 11.6667 92.1586 11.7727 92.6548 11.7727C92.9768 11.7727 93.2704 11.7273 93.5355 11.6364C93.8007 11.5417 94.0298 11.4015 94.223 11.2159C94.4162 11.0303 94.5639 10.8011 94.6662 10.5284L96.2741 10.8182C96.1454 11.2917 95.9143 11.7064 95.581 12.0625C95.2514 12.4148 94.8366 12.6894 94.3366 12.8864C93.8404 13.0795 93.2741 13.1761 92.6378 13.1761ZM98.267 13V4.27273H99.9091V5.65909H100C100.159 5.18939 100.439 4.82008 100.841 4.55114C101.246 4.27841 101.705 4.14205 102.216 4.14205C102.322 4.14205 102.447 4.14583 102.591 4.15341C102.739 4.16098 102.854 4.17045 102.938 4.18182V5.80682C102.869 5.78788 102.748 5.76705 102.574 5.74432C102.4 5.7178 102.225 5.70455 102.051 5.70455C101.65 5.70455 101.292 5.78977 100.977 5.96023C100.667 6.12689 100.42 6.35985 100.239 6.65909C100.057 6.95455 99.9659 7.29167 99.9659 7.67045V13H98.267ZM118.443 5.14773H116.67C116.602 4.76894 116.475 4.43561 116.29 4.14773C116.104 3.85985 115.877 3.61553 115.608 3.41477C115.339 3.21401 115.038 3.0625 114.705 2.96023C114.375 2.85795 114.025 2.80682 113.653 2.80682C112.983 2.80682 112.383 2.97538 111.852 3.3125C111.326 3.64962 110.909 4.14394 110.602 4.79545C110.299 5.44697 110.148 6.24242 110.148 7.18182C110.148 8.12879 110.299 8.92803 110.602 9.57955C110.909 10.2311 111.328 10.7235 111.858 11.0568C112.388 11.3902 112.985 11.5568 113.648 11.5568C114.015 11.5568 114.364 11.5076 114.693 11.4091C115.027 11.3068 115.328 11.1572 115.597 10.9602C115.866 10.7633 116.093 10.5227 116.278 10.2386C116.468 9.95076 116.598 9.62121 116.67 9.25L118.443 9.25568C118.348 9.82765 118.165 10.3542 117.892 10.8352C117.623 11.3125 117.277 11.7254 116.852 12.0739C116.432 12.4186 115.951 12.6856 115.409 12.875C114.867 13.0644 114.277 13.1591 113.636 13.1591C112.629 13.1591 111.731 12.9205 110.943 12.4432C110.155 11.9621 109.534 11.2746 109.08 10.3807C108.629 9.48674 108.403 8.42045 108.403 7.18182C108.403 5.93939 108.631 4.87311 109.085 3.98295C109.54 3.08901 110.161 2.40341 110.949 1.92614C111.737 1.44508 112.633 1.20455 113.636 1.20455C114.254 1.20455 114.83 1.29356 115.364 1.47159C115.902 1.64583 116.384 1.90341 116.812 2.24432C117.241 2.58144 117.595 2.99432 117.875 3.48295C118.155 3.9678 118.345 4.52273 118.443 5.14773ZM124.084 13.1761C123.266 13.1761 122.552 12.9886 121.942 12.6136C121.332 12.2386 120.858 11.714 120.521 11.0398C120.184 10.3655 120.016 9.57765 120.016 8.67614C120.016 7.77083 120.184 6.97917 120.521 6.30114C120.858 5.62311 121.332 5.09659 121.942 4.72159C122.552 4.34659 123.266 4.15909 124.084 4.15909C124.902 4.15909 125.616 4.34659 126.226 4.72159C126.836 5.09659 127.309 5.62311 127.646 6.30114C127.983 6.97917 128.152 7.77083 128.152 8.67614C128.152 9.57765 127.983 10.3655 127.646 11.0398C127.309 11.714 126.836 12.2386 126.226 12.6136C125.616 12.9886 124.902 13.1761 124.084 13.1761ZM124.089 11.75C124.62 11.75 125.059 11.6098 125.408 11.3295C125.756 11.0492 126.014 10.6761 126.18 10.2102C126.351 9.74432 126.436 9.23106 126.436 8.67045C126.436 8.11364 126.351 7.60227 126.18 7.13636C126.014 6.66667 125.756 6.28977 125.408 6.00568C125.059 5.72159 124.62 5.57955 124.089 5.57955C123.555 5.57955 123.112 5.72159 122.76 6.00568C122.411 6.28977 122.152 6.66667 121.982 7.13636C121.815 7.60227 121.732 8.11364 121.732 8.67045C121.732 9.23106 121.815 9.74432 121.982 10.2102C122.152 10.6761 122.411 11.0492 122.76 11.3295C123.112 11.6098 123.555 11.75 124.089 11.75ZM130.048 13V4.27273H131.679V5.69318H131.787C131.969 5.21212 132.266 4.83712 132.679 4.56818C133.092 4.29545 133.586 4.15909 134.162 4.15909C134.745 4.15909 135.234 4.29545 135.628 4.56818C136.026 4.84091 136.319 5.21591 136.509 5.69318H136.599C136.808 5.22727 137.139 4.85606 137.594 4.57955C138.048 4.29924 138.59 4.15909 139.219 4.15909C140.01 4.15909 140.656 4.4072 141.156 4.90341C141.66 5.39962 141.912 6.14773 141.912 7.14773V13H140.213V7.30682C140.213 6.71591 140.052 6.28788 139.73 6.02273C139.408 5.75758 139.024 5.625 138.577 5.625C138.024 5.625 137.594 5.79545 137.287 6.13636C136.98 6.47348 136.827 6.9072 136.827 7.4375V13H135.134V7.19886C135.134 6.72538 134.986 6.3447 134.69 6.05682C134.395 5.76894 134.01 5.625 133.537 5.625C133.215 5.625 132.918 5.71023 132.645 5.88068C132.376 6.04735 132.158 6.2803 131.991 6.57955C131.829 6.87879 131.747 7.22538 131.747 7.61932V13H130.048ZM144.189 13V4.27273H145.82V5.69318H145.928C146.109 5.21212 146.407 4.83712 146.82 4.56818C147.232 4.29545 147.727 4.15909 148.303 4.15909C148.886 4.15909 149.375 4.29545 149.768 4.56818C150.166 4.84091 150.46 5.21591 150.649 5.69318H150.74C150.948 5.22727 151.28 4.85606 151.734 4.57955C152.189 4.29924 152.731 4.15909 153.359 4.15909C154.151 4.15909 154.797 4.4072 155.297 4.90341C155.801 5.39962 156.053 6.14773 156.053 7.14773V13H154.354V7.30682C154.354 6.71591 154.193 6.28788 153.871 6.02273C153.549 5.75758 153.164 5.625 152.717 5.625C152.164 5.625 151.734 5.79545 151.428 6.13636C151.121 6.47348 150.967 6.9072 150.967 7.4375V13H149.274V7.19886C149.274 6.72538 149.126 6.3447 148.831 6.05682C148.536 5.76894 148.151 5.625 147.678 5.625C147.356 5.625 147.058 5.71023 146.786 5.88068C146.517 6.04735 146.299 6.2803 146.132 6.57955C145.969 6.87879 145.888 7.22538 145.888 7.61932V13H144.189ZM158.33 13V4.27273H160.028V13H158.33ZM159.188 2.92614C158.892 2.92614 158.638 2.82765 158.426 2.63068C158.218 2.42992 158.114 2.19129 158.114 1.91477C158.114 1.63447 158.218 1.39583 158.426 1.19886C158.638 0.998106 158.892 0.897727 159.188 0.897727C159.483 0.897727 159.735 0.998106 159.943 1.19886C160.155 1.39583 160.261 1.63447 160.261 1.91477C160.261 2.19129 160.155 2.42992 159.943 2.63068C159.735 2.82765 159.483 2.92614 159.188 2.92614ZM166.388 4.27273V5.63636H161.621V4.27273H166.388ZM162.899 2.18182H164.598V10.4375C164.598 10.767 164.647 11.0152 164.746 11.1818C164.844 11.3447 164.971 11.4564 165.126 11.517C165.286 11.5739 165.458 11.6023 165.643 11.6023C165.78 11.6023 165.899 11.5928 166.001 11.5739C166.104 11.5549 166.183 11.5398 166.24 11.5284L166.547 12.9318C166.448 12.9697 166.308 13.0076 166.126 13.0455C165.945 13.0871 165.717 13.1098 165.445 13.1136C164.998 13.1212 164.581 13.0417 164.195 12.875C163.808 12.7083 163.496 12.4508 163.257 12.1023C163.018 11.7538 162.899 11.3163 162.899 10.7898V2.18182ZM172.341 4.27273V5.63636H167.574V4.27273H172.341ZM168.852 2.18182H170.551V10.4375C170.551 10.767 170.6 11.0152 170.699 11.1818C170.797 11.3447 170.924 11.4564 171.08 11.517C171.239 11.5739 171.411 11.6023 171.597 11.6023C171.733 11.6023 171.852 11.5928 171.955 11.5739C172.057 11.5549 172.136 11.5398 172.193 11.5284L172.5 12.9318C172.402 12.9697 172.261 13.0076 172.08 13.0455C171.898 13.0871 171.67 13.1098 171.398 13.1136C170.951 13.1212 170.534 13.0417 170.148 12.875C169.761 12.7083 169.449 12.4508 169.21 12.1023C168.972 11.7538 168.852 11.3163 168.852 10.7898V2.18182ZM177.888 13.1761C177.028 13.1761 176.287 12.9924 175.666 12.625C175.049 12.2538 174.571 11.733 174.234 11.0625C173.901 10.3883 173.734 9.59848 173.734 8.69318C173.734 7.79924 173.901 7.01136 174.234 6.32955C174.571 5.64773 175.041 5.11553 175.643 4.73295C176.25 4.35038 176.958 4.15909 177.768 4.15909C178.261 4.15909 178.738 4.24053 179.2 4.40341C179.662 4.56629 180.077 4.82197 180.445 5.17045C180.812 5.51894 181.102 5.97159 181.314 6.52841C181.526 7.08144 181.632 7.75379 181.632 8.54545V9.14773H174.695V7.875H179.967C179.967 7.42803 179.876 7.0322 179.695 6.6875C179.513 6.33902 179.257 6.06439 178.928 5.86364C178.602 5.66288 178.219 5.5625 177.78 5.5625C177.303 5.5625 176.886 5.67992 176.53 5.91477C176.178 6.14583 175.905 6.44886 175.712 6.82386C175.522 7.19508 175.428 7.59848 175.428 8.03409V9.02841C175.428 9.61174 175.53 10.108 175.734 10.517C175.943 10.9261 176.232 11.2386 176.604 11.4545C176.975 11.6667 177.409 11.7727 177.905 11.7727C178.227 11.7727 178.52 11.7273 178.786 11.6364C179.051 11.5417 179.28 11.4015 179.473 11.2159C179.666 11.0303 179.814 10.8011 179.916 10.5284L181.524 10.8182C181.395 11.2917 181.164 11.7064 180.831 12.0625C180.501 12.4148 180.087 12.6894 179.587 12.8864C179.09 13.0795 178.524 13.1761 177.888 13.1761ZM187.278 13.1761C186.419 13.1761 185.678 12.9924 185.057 12.625C184.439 12.2538 183.962 11.733 183.625 11.0625C183.292 10.3883 183.125 9.59848 183.125 8.69318C183.125 7.79924 183.292 7.01136 183.625 6.32955C183.962 5.64773 184.432 5.11553 185.034 4.73295C185.64 4.35038 186.348 4.15909 187.159 4.15909C187.652 4.15909 188.129 4.24053 188.591 4.40341C189.053 4.56629 189.468 4.82197 189.835 5.17045C190.203 5.51894 190.492 5.97159 190.705 6.52841C190.917 7.08144 191.023 7.75379 191.023 8.54545V9.14773H184.085V7.875H189.358C189.358 7.42803 189.267 7.0322 189.085 6.6875C188.903 6.33902 188.648 6.06439 188.318 5.86364C187.992 5.66288 187.61 5.5625 187.17 5.5625C186.693 5.5625 186.277 5.67992 185.92 5.91477C185.568 6.14583 185.295 6.44886 185.102 6.82386C184.913 7.19508 184.818 7.59848 184.818 8.03409V9.02841C184.818 9.61174 184.92 10.108 185.125 10.517C185.333 10.9261 185.623 11.2386 185.994 11.4545C186.366 11.6667 186.799 11.7727 187.295 11.7727C187.617 11.7727 187.911 11.7273 188.176 11.6364C188.441 11.5417 188.67 11.4015 188.864 11.2159C189.057 11.0303 189.205 10.8011 189.307 10.5284L190.915 10.8182C190.786 11.2917 190.555 11.7064 190.222 12.0625C189.892 12.4148 189.477 12.6894 188.977 12.8864C188.481 13.0795 187.915 13.1761 187.278 13.1761ZM199.447 6.40341L197.908 6.67614C197.843 6.47917 197.741 6.29167 197.601 6.11364C197.464 5.93561 197.279 5.78977 197.044 5.67614C196.809 5.5625 196.516 5.50568 196.163 5.50568C195.682 5.50568 195.281 5.61364 194.959 5.82955C194.637 6.04167 194.476 6.31629 194.476 6.65341C194.476 6.94508 194.584 7.17992 194.8 7.35795C195.016 7.53598 195.364 7.68182 195.845 7.79545L197.232 8.11364C198.035 8.29924 198.633 8.58523 199.027 8.97159C199.421 9.35795 199.618 9.85985 199.618 10.4773C199.618 11 199.466 11.4659 199.163 11.875C198.864 12.2803 198.446 12.5985 197.908 12.8295C197.374 13.0606 196.754 13.1761 196.05 13.1761C195.072 13.1761 194.275 12.9678 193.658 12.5511C193.04 12.1307 192.661 11.5341 192.521 10.7614L194.163 10.5114C194.266 10.9394 194.476 11.2633 194.794 11.483C195.112 11.6989 195.527 11.8068 196.038 11.8068C196.595 11.8068 197.04 11.6913 197.374 11.4602C197.707 11.2254 197.874 10.9394 197.874 10.6023C197.874 10.3295 197.771 10.1004 197.567 9.91477C197.366 9.72917 197.057 9.58902 196.641 9.49432L195.163 9.17045C194.349 8.98485 193.747 8.68939 193.357 8.28409C192.97 7.87879 192.777 7.36553 192.777 6.74432C192.777 6.22917 192.921 5.77841 193.209 5.39205C193.497 5.00568 193.894 4.70455 194.402 4.48864C194.91 4.26894 195.491 4.15909 196.146 4.15909C197.089 4.15909 197.832 4.36364 198.374 4.77273C198.915 5.17803 199.273 5.72159 199.447 6.40341Z" fill="#231536"/>
</svg>
