<svg width="64" height="64" viewBox="0 0 64 64" fill="none" xmlns="http://www.w3.org/2000/svg">
<path fill-rule="evenodd" clip-rule="evenodd" d="M5 42H59V53C59 56.3137 56.3137 59 53 59H11C7.68629 59 5 56.3137 5 53V42ZM9 45.5C9 45.2239 9.22386 45 9.5 45H17C17.2761 45 17.5 45.2239 17.5 45.5V47C17.5 47.2761 17.2761 47.5 17 47.5H9.5C9.22386 47.5 9 47.2761 9 47V45.5ZM9.5 51C9.22386 51 9 51.2239 9 51.5V53C9 53.2761 9.22386 53.5 9.5 53.5H17C17.2761 53.5 17.5 53.2761 17.5 53V51.5C17.5 51.2239 17.2761 51 17 51H9.5ZM21.5 45.5C21.5 45.2239 21.7239 45 22 45H29.5C29.7761 45 30 45.2239 30 45.5V47C30 47.2761 29.7761 47.5 29.5 47.5H22C21.7239 47.5 21.5 47.2761 21.5 47V45.5ZM22 51C21.7239 51 21.5 51.2239 21.5 51.5V53C21.5 53.2761 21.7239 53.5 22 53.5H29.5C29.7761 53.5 30 53.2761 30 53V51.5C30 51.2239 29.7761 51 29.5 51H22ZM34 45.5C34 45.2239 34.2239 45 34.5 45H42C42.2761 45 42.5 45.2239 42.5 45.5V47C42.5 47.2761 42.2761 47.5 42 47.5H34.5C34.2239 47.5 34 47.2761 34 47V45.5ZM34.5 51C34.2239 51 34 51.2239 34 51.5V53C34 53.2761 34.2239 53.5 34.5 53.5H42C42.2761 53.5 42.5 53.2761 42.5 53V51.5C42.5 51.2239 42.2761 51 42 51H34.5ZM46.5 45.5C46.5 45.2239 46.7239 45 47 45H54.5C54.7761 45 55 45.2239 55 45.5V47C55 47.2761 54.7761 47.5 54.5 47.5H47C46.7239 47.5 46.5 47.2761 46.5 47V45.5ZM47 51C46.7239 51 46.5 51.2239 46.5 51.5V53C46.5 53.2761 46.7239 53.5 47 53.5H54.5C54.7761 53.5 55 53.2761 55 53V51.5C55 51.2239 54.7761 51 54.5 51H47Z" fill="#546978"/>
<path d="M9 22.5C9 21.6716 9.67157 21 10.5 21H16C16.8284 21 17.5 21.6716 17.5 22.5V42H9V22.5Z" fill="url(#paint0_linear_22315_256731)"/>
<path d="M21.5 6.5C21.5 5.67157 22.1716 5 23 5H28.5C29.3284 5 30 5.67157 30 6.5V42H21.5V6.5Z" fill="url(#paint1_linear_22315_256731)"/>
<path d="M34 13C34 12.1716 34.6716 11.5 35.5 11.5H41C41.8284 11.5 42.5 12.1716 42.5 13V42H34V13Z" fill="url(#paint2_linear_22315_256731)"/>
<path d="M46.5 30C46.5 29.1716 47.1716 28.5 48 28.5H53.5C54.3284 28.5 55 29.1716 55 30V42H46.5V30Z" fill="url(#paint3_linear_22315_256731)"/>
<defs>
<linearGradient id="paint0_linear_22315_256731" x1="13.25" y1="21" x2="13.25" y2="42" gradientUnits="userSpaceOnUse">
<stop stop-color="#546978" stop-opacity="0"/>
<stop offset="0.140625" stop-color="#546978" stop-opacity="0.251886"/>
<stop offset="0.302083" stop-color="#546978" stop-opacity="0.442708"/>
<stop offset="1" stop-color="#546978"/>
</linearGradient>
<linearGradient id="paint1_linear_22315_256731" x1="25.75" y1="5" x2="25.75" y2="42" gradientUnits="userSpaceOnUse">
<stop stop-color="#546978" stop-opacity="0"/>
<stop offset="0.140625" stop-color="#546978" stop-opacity="0.251886"/>
<stop offset="0.302083" stop-color="#546978" stop-opacity="0.442708"/>
<stop offset="1" stop-color="#546978"/>
</linearGradient>
<linearGradient id="paint2_linear_22315_256731" x1="38.25" y1="11.5" x2="38.25" y2="42" gradientUnits="userSpaceOnUse">
<stop stop-color="#546978" stop-opacity="0"/>
<stop offset="0.140625" stop-color="#546978" stop-opacity="0.251886"/>
<stop offset="0.302083" stop-color="#546978" stop-opacity="0.442708"/>
<stop offset="1" stop-color="#546978"/>
</linearGradient>
<linearGradient id="paint3_linear_22315_256731" x1="50.75" y1="28.5" x2="50.75" y2="42" gradientUnits="userSpaceOnUse">
<stop stop-color="#546978" stop-opacity="0"/>
<stop offset="0.140625" stop-color="#546978" stop-opacity="0.251886"/>
<stop offset="0.302083" stop-color="#546978" stop-opacity="0.442708"/>
<stop offset="1" stop-color="#546978"/>
</linearGradient>
</defs>
</svg>
