<svg width="64" height="64" viewBox="0 0 64 64" fill="none" xmlns="http://www.w3.org/2000/svg">
<path fill-rule="evenodd" clip-rule="evenodd" d="M9.886 22.5608C11.9026 23.4908 15.233 24.4964 15.233 24.4964C15.8245 24.7105 16.4359 24.8649 17.0581 24.9572L25.9224 26.2729C27.6975 26.5363 29.3478 27.342 30.6472 28.5796L31.7906 29.6685L32.934 28.5796C34.2334 27.342 35.8837 26.5363 37.6588 26.2729L46.5231 24.9572C47.1453 24.8649 47.7567 24.7105 48.3482 24.4964C48.3482 24.4964 51.6786 23.4908 53.6952 22.5608C55.3622 21.792 57.8156 20.2982 57.8156 20.2982L56.0099 23.1747C55.1499 24.5447 53.8566 25.5879 52.3356 26.1385L49.3357 27.2244C48.5623 27.5044 47.7627 27.7063 46.949 27.8271L38.0847 29.1427C36.9013 29.3184 35.8012 29.8555 34.9348 30.6806L31.7906 33.6751L28.6464 30.6806C27.78 29.8555 26.6799 29.3184 25.4965 29.1427L16.6322 27.8271C15.8185 27.7063 15.0189 27.5044 14.2455 27.2244L11.2456 26.1385C9.72463 25.5879 8.43133 24.5447 7.57132 23.1747L5.76562 20.2982C5.76562 20.2982 8.21899 21.792 9.886 22.5608Z" fill="#546978"/>
<path fill-rule="evenodd" clip-rule="evenodd" d="M12.1574 17.442C13.8717 18.2691 16.6508 19.3302 16.6508 19.3302C17.3182 19.6107 18.0157 19.8134 18.7294 19.9342L26.026 21.1699C27.7251 21.4576 29.3005 22.2432 30.5526 23.4271L31.7911 24.5981L33.0296 23.4271C34.2817 22.2432 35.8571 21.4576 37.5562 21.1699L44.8528 19.9342C45.5665 19.8134 46.264 19.6107 46.9314 19.3302C46.9314 19.3302 49.7105 18.2691 51.4248 17.442C53.1038 16.6319 55.6134 15.1527 55.6134 15.1527L53.7691 18.1401C52.9754 19.4257 51.8001 20.4313 50.4073 21.0166L48.0553 22.005C47.1826 22.3717 46.2706 22.6367 45.3372 22.7948L38.0406 24.0304C36.9079 24.2223 35.8576 24.746 35.0229 25.5353L31.7911 28.591L28.5593 25.5353C27.7246 24.746 26.6743 24.2223 25.5416 24.0304L18.245 22.7948C17.3116 22.6367 16.3996 22.3717 15.5268 22.005L13.1749 21.0166C11.782 20.4313 10.6067 19.4257 9.81308 18.1401L7.96875 15.1527C7.96875 15.1527 10.4784 16.6319 12.1574 17.442Z" fill="#546978"/>
<path d="M10.1774 27.5408L5.5 25.3252L9.04026 28.6791C11.2387 30.7619 13.9239 32.2609 16.8506 33.0393L17.804 33.2928C24.8527 35.1675 30.0921 41.0829 31.1019 48.3064L31.7929 53.2501V40.6761C31.7929 37.5093 30.3411 34.5172 27.8536 32.5573C26.5115 31.4999 24.9282 30.7917 23.2453 30.4961L14.8025 29.0129C13.2018 28.7317 11.6462 28.2365 10.1774 27.5408Z" fill="#546978"/>
<path d="M53.4085 27.5408L58.0859 25.3252L54.5457 28.6791C52.3472 30.7619 49.6621 32.2609 46.7354 33.0393L45.7819 33.2928C38.7332 35.1675 33.4938 41.0829 32.4841 48.3064L31.793 53.2501V40.6761C31.793 37.5093 33.2448 34.5172 35.7323 32.5573C37.0744 31.4999 38.6577 30.7917 40.3406 30.4961L48.7835 29.0129C50.3841 28.7317 51.9397 28.2365 53.4085 27.5408Z" fill="#546978"/>
<path fill-rule="evenodd" clip-rule="evenodd" d="M27.5695 16.9654C27.4942 17.0721 27.5132 17.2189 27.6119 17.3044C28.224 17.8345 30.2669 19.6776 31.0574 21.3198C31.4157 22.0643 31.7773 23.3091 31.7773 23.3091C31.7773 23.3091 32.139 22.0643 32.4973 21.3198C33.2878 19.6776 35.3307 17.8344 35.9428 17.3044C36.0415 17.2189 36.0605 17.0721 35.9852 16.9654L31.9816 11.2896C31.882 11.1484 31.6727 11.1484 31.5731 11.2896L27.5695 16.9654ZM35.2426 16.9839L31.7878 12.088L28.333 16.9839H35.2426Z" fill="#546978"/>
</svg>
