<svg width="64" height="64" viewBox="0 0 64 64" fill="none" xmlns="http://www.w3.org/2000/svg">
<g clip-path="url(#clip0_24608_226867)">
<path d="M19.0078 23C19.0078 23 24.0078 25.5 31.5078 25.5C39.0078 25.5 44.0078 23.5 44.0078 23.5" stroke="#546978"/>
<path d="M12.0078 31.5C12.0078 31.5 19.0078 37.5 31.5078 37.5C44.0078 37.5 52.0078 31.5 52.0078 31.5" stroke="#546978"/>
<path d="M58.3073 37.4896C58.3073 37.4896 43.7533 42.8736 39.0806 46.1601C33.3573 50.1855 31.7969 52.5457 31.7969 52.5457C31.7969 52.5457 30.2365 50.1855 24.5131 46.1601C19.8404 42.8736 5.2865 37.4896 5.2865 37.4896" stroke="#546978" stroke-width="2.71676" stroke-linecap="round"/>
<path fill-rule="evenodd" clip-rule="evenodd" d="M18.4692 43.5805L31.7813 52.2741L45.0934 43.5805L58.7248 37.4078C59.0845 37.2449 59.4923 37.5079 59.4923 37.9027V41.4555C59.4923 41.6538 59.3842 41.8363 59.2104 41.9317L31.7813 56.9909L4.35217 41.9317C4.17834 41.8363 4.07031 41.6538 4.07031 41.4555V37.9027C4.07031 37.5079 4.47812 37.2449 4.8378 37.4078L18.4692 43.5805Z" fill="#546978"/>
<path fill-rule="evenodd" clip-rule="evenodd" d="M3.80469 37.9025C3.80469 37.3103 4.4164 36.9157 4.95592 37.1601L18.6063 43.3414L31.7873 51.9494L44.9684 43.3414L58.6188 37.1601C59.1583 36.9157 59.77 37.3103 59.77 37.9025V42.5419C59.77 42.8394 59.608 43.1132 59.3472 43.2564L31.7873 58.3873L4.22747 43.2564C3.96673 43.1132 3.80469 42.8394 3.80469 42.5419V37.9025ZM4.73178 37.655C4.55194 37.5736 4.34804 37.7051 4.34804 37.9025V42.5419C4.34804 42.6411 4.40206 42.7324 4.48897 42.7801L31.7873 57.7674L59.0857 42.7801C59.1726 42.7324 59.2267 42.6411 59.2267 42.5419V37.9025C59.2267 37.7051 59.0228 37.5736 58.8429 37.655L45.2306 43.8191L31.7873 52.5984L18.3441 43.8191L4.73178 37.655Z" fill="#546978"/>
<path d="M41.5003 44.4763L32.3086 12.2312C32.1596 11.7084 31.4201 11.7042 31.2652 12.2254L21.7147 44.3727" stroke="#546978" stroke-width="2.17341"/>
<path d="M58.3073 36.9463L32.9495 11.5885C32.3129 10.952 31.2808 10.952 30.6443 11.5885L5.2865 36.9463" stroke="#546978" stroke-width="2.71676" stroke-linecap="round"/>
</g>
<defs>
<clipPath id="clip0_24608_226867">
<rect width="64" height="64" fill="white"/>
</clipPath>
</defs>
</svg>
