<svg width="64" height="64" viewBox="0 0 64 64" fill="none" xmlns="http://www.w3.org/2000/svg">
<path d="M60 32C60 35.677 59.2758 39.318 57.8686 42.7151C56.4615 46.1123 54.399 49.199 51.799 51.799C49.1989 54.399 46.1123 56.4615 42.7151 57.8686C39.318 59.2758 35.677 60 32 60C28.323 60 24.682 59.2758 21.2849 57.8686C17.8877 56.4615 14.801 54.399 12.201 51.799C9.60097 49.1989 7.5385 46.1123 6.13137 42.7151C4.72424 39.318 4 35.677 4 32" stroke="#546978" stroke-width="5"/>
<path fill-rule="evenodd" clip-rule="evenodd" d="M31.5 61L31.5 10L27.5 15L27.5 61H31.5ZM26.5 16L26.5 61L22.5 59.5L22.5 21L26.5 16ZM21.5 59.5L21.5 22L17.5 27L17.5 57L21.5 59.5ZM16.5 56L16.5 28L12.5 33V53.5L16.5 56ZM51.5 33V53.5L47.5 56V28L51.5 33ZM46.5 57V27L42.5 22L42.5 59.5L46.5 57ZM41.5 21L41.5 59.5L37.5 61L37.5 16L41.5 21ZM36.5 61L36.5 15L32.5 10L32.5 61H36.5Z" fill="#546978"/>
</svg>
