<svg width="64" height="64" viewBox="0 0 64 64" fill="none" xmlns="http://www.w3.org/2000/svg">
<path d="M27.3984 51.5H36.3984V59C36.3984 59.8284 35.7269 60.5 34.8984 60.5H28.8984C28.07 60.5 27.3984 59.8284 27.3984 59V51.5Z" fill="#546978"/>
<path fill-rule="evenodd" clip-rule="evenodd" d="M39.7898 27.5C35.9294 18.4203 31.8975 3.5 31.8975 3.5C31.8975 3.5 27.8657 18.4203 24.0052 27.5C21.4013 33.6243 17.0107 41.4772 14.0874 46.5H24.8981C24.8981 45.5807 25.0791 44.6705 25.4309 43.8212C25.7827 42.9719 26.2983 42.2003 26.9483 41.5503C27.5983 40.9002 28.37 40.3846 29.2193 40.0328C30.0686 39.6811 30.9788 39.5 31.8981 39.5C32.8173 39.5 33.7276 39.6811 34.5769 40.0328C35.4261 40.3846 36.1978 40.9002 36.8478 41.5503C37.4978 42.2003 38.0134 42.9719 38.3652 43.8212C38.717 44.6705 38.8981 45.5808 38.8981 46.5L49.7076 46.5C46.7843 41.4772 42.3937 33.6243 39.7898 27.5ZM51.1777 49H12.6174C12.1853 49.727 11.8294 50.3191 11.5725 50.7442C11.3702 51.0788 11.6159 51.5 12.0069 51.5H51.7881C52.1791 51.5 52.4249 51.0788 52.2226 50.7442C51.9656 50.3191 51.6097 49.727 51.1777 49ZM34.8981 29C34.8981 30.6569 33.5549 32 31.8981 32C30.2412 32 28.8981 30.6569 28.8981 29C28.8981 27.3431 30.2412 26 31.8981 26C33.5549 26 34.8981 27.3431 34.8981 29ZM36.3981 29C36.3981 31.4853 34.3833 33.5 31.8981 33.5C29.4128 33.5 27.3981 31.4853 27.3981 29C27.3981 26.5147 29.4128 24.5 31.8981 24.5C34.3833 24.5 36.3981 26.5147 36.3981 29Z" fill="#546978"/>
</svg>
