<svg width="65" height="64" viewBox="0 0 65 64" fill="none" xmlns="http://www.w3.org/2000/svg">
<path d="M38.7969 35.5C38.7969 33.9087 38.1647 32.3826 37.0395 31.2574C35.9143 30.1321 34.3882 29.5 32.7969 29.5C31.2056 29.5 29.6795 30.1321 28.5542 31.2574C28.1463 31.6653 27.8031 32.126 27.5314 32.6234C26.7371 34.0774 25.4537 35.5 23.7969 35.5L8.79688 35.5" stroke="#546978" stroke-width="4" stroke-linecap="round"/>
<path d="M26.7969 42.5C26.7969 44.0913 27.429 45.6174 28.5542 46.7426C29.6795 47.8679 31.2056 48.5 32.7969 48.5C34.3882 48.5 35.9143 47.8679 37.0395 46.7426C37.4475 46.3347 37.7906 45.874 38.0624 45.3766C38.8567 43.9226 40.14 42.5 41.7969 42.5L56.7969 42.5" stroke="#546978" stroke-width="4" stroke-linecap="round"/>
<path d="M32.7969 56V19" stroke="#546978" stroke-width="2" stroke-linecap="round"/>
<path d="M37.7969 24.5L37.7969 18.5" stroke="#546978" stroke-width="2" stroke-linecap="round"/>
<path d="M37.7969 14.5L37.7969 13.5" stroke="#546978" stroke-width="2" stroke-linecap="round"/>
<path fill-rule="evenodd" clip-rule="evenodd" d="M32.7969 15C32.2446 15 31.7969 14 31.7969 14C31.7969 14 30.7969 10.5523 30.7969 10C30.7969 9.44772 31.6923 8 32.7969 8C33.9014 8 34.7969 9.44772 34.7969 10C34.7969 10.5523 33.7969 14 33.7969 14C33.7969 14 33.3492 15 32.7969 15Z" fill="#546978"/>
<path d="M27.7969 24.5L27.7969 18.5" stroke="#546978" stroke-width="2" stroke-linecap="round"/>
<path d="M27.7969 14.5L27.7969 13.5" stroke="#546978" stroke-width="2" stroke-linecap="round"/>
<path d="M45.2969 48L45.2969 37" stroke="#546978" stroke-width="2" stroke-linecap="round"/>
<path d="M11.2969 39.5L11.2969 31.5" stroke="#546978" stroke-width="2" stroke-linecap="round"/>
<path d="M50.2969 47.5L50.2969 37.5" stroke="#546978" stroke-width="2" stroke-linecap="round"/>
<path d="M16.2969 40.5L16.2969 30.5" stroke="#546978" stroke-width="2" stroke-linecap="round"/>
<path d="M55.2969 46.5L55.2969 38.5" stroke="#546978" stroke-width="2" stroke-linecap="round"/>
<path d="M21.2969 41L21.2969 30" stroke="#546978" stroke-width="2" stroke-linecap="round"/>
</svg>
