<svg width="64" height="64" viewBox="0 0 64 64" fill="none" xmlns="http://www.w3.org/2000/svg">
<path fill-rule="evenodd" clip-rule="evenodd" d="M32.001 57.5313C44.5855 57.5313 54.7872 47.3296 54.7872 34.7451C54.7872 31.1562 53.9575 27.7611 52.4794 24.7412C55.088 28.6472 56.6088 33.3414 56.6088 38.3909C56.6088 51.9821 45.5909 63 31.9997 63C18.4085 63 7.39062 51.9821 7.39062 38.3909C7.39062 33.3351 8.91528 28.6353 11.5299 24.7263C10.0473 27.75 9.21484 31.1504 9.21484 34.7451C9.21484 47.3296 19.4166 57.5313 32.001 57.5313Z" fill="#546978"/>
<path fill-rule="evenodd" clip-rule="evenodd" d="M31.9997 46.1278C41.3216 46.1278 48.8784 38.5709 48.8784 29.2491C48.8784 26.5827 48.2601 24.0607 47.1591 21.8187C49.0996 24.7161 50.2313 28.2007 50.2313 31.9497C50.2313 42.0173 42.0699 50.1787 32.0024 50.1787C21.9348 50.1787 13.7734 42.0173 13.7734 31.9497C13.7734 28.2135 14.8975 24.7397 16.8259 21.8483C15.734 24.0829 15.1211 26.5944 15.1211 29.2491C15.1211 38.5709 22.6779 46.1278 31.9997 46.1278Z" fill="#546978"/>
<path d="M23.1199 28.6371L32.0313 1.49999L40.9426 28.6371L32.0313 38.5L23.1199 28.6371Z" fill="#546978"/>
<path d="M32.0312 38.4862L23.1172 28.635L32.0312 31.7839L40.9466 28.635L32.0312 38.4862Z" fill="#31424E"/>
</svg>
