<svg width="65" height="64" viewBox="0 0 65 64" fill="none" xmlns="http://www.w3.org/2000/svg">
<path d="M5.69531 33H58.6953" stroke="#546978" stroke-width="2.5" stroke-linecap="round"/>
<path d="M5.69531 22.5C5.69531 22.5 12.3977 27.104 16.4453 30.375C23.0255 35.6927 23.735 45.25 32.1953 45.25C40.6556 45.25 41.3651 35.6927 47.9453 30.375C51.9929 27.104 58.6953 22.5 58.6953 22.5" stroke="#546978" stroke-linecap="round"/>
<path d="M5.69531 17.5C5.69531 17.5 12.3977 22.104 16.4453 25.375C23.0255 30.6927 23.735 40.25 32.1953 40.25C40.6556 40.25 41.3651 30.6927 47.9453 25.375C51.9929 22.104 58.6953 17.5 58.6953 17.5" stroke="#546978" stroke-width="0.75" stroke-linecap="round"/>
<path d="M5.69531 12.5C5.69531 12.5 12.3977 17.104 16.4453 20.375C23.0255 25.6927 23.735 35.25 32.1953 35.25C40.6556 35.25 41.3651 25.6927 47.9453 20.375C51.9929 17.104 58.6953 12.5 58.6953 12.5" stroke="#546978" stroke-width="0.5" stroke-linecap="round"/>
<circle cx="32.1953" cy="53" r="3.5" fill="#546978"/>
<circle cx="32.1953" cy="16" r="8" fill="#546978"/>
<circle cx="50.1953" cy="44" r="2" fill="#546978"/>
<circle cx="14.1953" cy="44" r="2" fill="#546978"/>
</svg>
