<svg width="64" height="64" viewBox="0 0 64 64" fill="none" xmlns="http://www.w3.org/2000/svg">
<path d="M50.3827 50.3839C47.3594 53.4071 43.6372 55.6381 39.5458 56.8792C35.4544 58.1204 31.12 58.3333 26.9267 57.4992C22.7333 56.6651 18.8104 54.8097 15.5053 52.0973C12.2003 49.3849 9.61522 45.8993 7.97904 41.9493C6.34287 37.9992 5.70612 33.7066 6.1252 29.4517C6.54427 25.1967 8.00624 21.1108 10.3816 17.5558C12.7569 14.0009 15.9724 11.0866 19.743 9.07112C23.5137 7.05565 27.7232 6.00122 31.9988 6.00122" stroke="#546978" stroke-width="4"/>
<path d="M29.4219 6.12952C34.1647 5.65661 38.9463 6.4966 43.244 8.55768C47.5416 10.6188 51.19 13.8216 53.7903 17.8162C56.3907 21.8107 57.8428 26.4432 57.9881 31.2074C58.1335 35.9715 56.9663 40.6839 54.6143 44.8295" stroke="#546978" stroke-width="4"/>
<path d="M37.4562 16.4875C40.0072 17.3849 42.2976 18.8976 44.1243 20.8916C45.9511 22.8855 47.258 25.2992 47.9291 27.9189C48.6002 30.5386 48.6149 33.2833 47.9719 35.91C47.3289 38.5367 46.048 40.9643 44.2427 42.9777C42.4374 44.9912 40.1634 46.5283 37.6221 47.453C35.0808 48.3776 32.3508 48.6613 29.6737 48.2788C26.9966 47.8964 24.4551 46.8596 22.2745 45.2603C20.0938 43.661 18.3412 41.5486 17.1719 39.1102" stroke="#546978" stroke-width="4"/>
<path d="M17.7419 40.1945C16.2396 37.5808 15.4847 34.6043 15.5598 31.5906C15.6348 28.5768 16.5369 25.6416 18.1675 23.1059C19.798 20.5702 22.0943 18.5315 24.8052 17.2127C27.5162 15.8939 30.5375 15.3457 33.5389 15.6281" stroke="#546978" stroke-width="4"/>
<circle cx="31.9972" cy="32" r="8.48939" fill="#546978"/>
</svg>
